<mxfile host="app.diagrams.net" agent="Mozilla/5.0 (Windows NT 10.0; Win64; x64) AppleWebKit/537.36 (KHTML, like Gecko) Chrome/129.0.0.0 Safari/537.36" version="24.8.1">
  <diagram name="Page-1" id="v_FQGGZT2vaiFhJuMJaH">
    <mxGraphModel dx="1430" dy="786" grid="1" gridSize="10" guides="1" tooltips="1" connect="1" arrows="1" fold="1" page="1" pageScale="1" pageWidth="1100" pageHeight="850" background="#CFCFCF" math="0" shadow="0">
      <root>
        <mxCell id="0" />
        <mxCell id="1" parent="0" />
        <mxCell id="pVFXHFNgFS89Wjit-Zps-1" value="" style="rounded=1;whiteSpace=wrap;html=1;fillColor=#f5f5f5;fontColor=#333333;strokeColor=#666666;strokeWidth=2;shadow=1;shadowColor=#A1A1A1;movable=0;resizable=0;rotatable=0;deletable=0;editable=0;locked=1;connectable=0;" vertex="1" parent="1">
          <mxGeometry x="820" y="40" width="240" height="760" as="geometry" />
        </mxCell>
        <mxCell id="pVFXHFNgFS89Wjit-Zps-2" value="&lt;font face=&quot;Lucida Console&quot;&gt;System Overview&lt;/font&gt;" style="swimlane;fontStyle=0;childLayout=stackLayout;horizontal=1;startSize=30;horizontalStack=0;resizeParent=1;resizeParentMax=0;resizeLast=0;collapsible=1;marginBottom=0;whiteSpace=wrap;html=1;movable=0;resizable=0;rotatable=0;deletable=0;editable=0;locked=1;connectable=0;rounded=1;strokeWidth=2;" vertex="1" parent="1">
          <mxGeometry x="850" y="70" width="180" height="120" as="geometry">
            <mxRectangle x="850" y="70" width="150" height="30" as="alternateBounds" />
          </mxGeometry>
        </mxCell>
        <mxCell id="pVFXHFNgFS89Wjit-Zps-3" value="&lt;font style=&quot;font-size: 10px;&quot;&gt;&amp;nbsp;CPU&lt;/font&gt;" style="text;strokeColor=none;fillColor=none;align=left;verticalAlign=middle;spacingLeft=4;spacingRight=4;overflow=hidden;points=[[0,0.5],[1,0.5]];portConstraint=eastwest;rotatable=0;whiteSpace=wrap;html=1;fontFamily=Lucida Console;labelPadding=4;" vertex="1" parent="pVFXHFNgFS89Wjit-Zps-2">
          <mxGeometry y="30" width="180" height="30" as="geometry" />
        </mxCell>
        <mxCell id="pVFXHFNgFS89Wjit-Zps-4" value="&lt;font style=&quot;font-size: 10px;&quot;&gt;&amp;nbsp;Memory&lt;/font&gt;" style="text;strokeColor=none;fillColor=none;align=left;verticalAlign=middle;spacingLeft=4;spacingRight=4;overflow=hidden;points=[[0,0.5],[1,0.5]];portConstraint=eastwest;rotatable=0;whiteSpace=wrap;html=1;fontFamily=Lucida Console;perimeterSpacing=0;" vertex="1" parent="pVFXHFNgFS89Wjit-Zps-2">
          <mxGeometry y="60" width="180" height="30" as="geometry" />
        </mxCell>
        <mxCell id="pVFXHFNgFS89Wjit-Zps-5" value="&lt;font style=&quot;font-size: 10px;&quot;&gt;&amp;nbsp;GPU&lt;/font&gt;" style="text;strokeColor=none;fillColor=none;align=left;verticalAlign=middle;spacingLeft=4;spacingRight=4;overflow=hidden;points=[[0,0.5],[1,0.5]];portConstraint=eastwest;rotatable=0;whiteSpace=wrap;html=1;fontFamily=Lucida Console;" vertex="1" parent="pVFXHFNgFS89Wjit-Zps-2">
          <mxGeometry y="90" width="180" height="30" as="geometry" />
        </mxCell>
        <mxCell id="pVFXHFNgFS89Wjit-Zps-6" value="&lt;h3 style=&quot;text-align: center; margin-top: 0px;&quot;&gt;&lt;font face=&quot;Lucida Console&quot;&gt;Clipboard&lt;/font&gt;&lt;/h3&gt;&lt;p style=&quot;text-align: center;&quot;&gt;&lt;font style=&quot;font-size: 8px;&quot; face=&quot;Lucida Console&quot;&gt;Lorem ipsum dolor sit amet, consectetur adipisicing elit, sed do eiusmod tempor incididunt ut labore et dolore magna aliqua.&lt;/font&gt;&lt;/p&gt;" style="text;html=1;whiteSpace=wrap;overflow=hidden;rounded=1;strokeColor=default;strokeWidth=2;movable=0;resizable=0;rotatable=0;deletable=0;editable=0;locked=1;connectable=0;" vertex="1" parent="1">
          <mxGeometry x="850" y="210" width="180" height="110" as="geometry" />
        </mxCell>
        <mxCell id="pVFXHFNgFS89Wjit-Zps-7" value="Note" style="swimlane;whiteSpace=wrap;html=1;rounded=1;strokeWidth=2;movable=0;resizable=0;rotatable=0;deletable=0;editable=0;locked=1;connectable=0;" vertex="1" parent="1">
          <mxGeometry x="850" y="340" width="180" height="130" as="geometry" />
        </mxCell>
        <mxCell id="pVFXHFNgFS89Wjit-Zps-28" value="" style="group" vertex="1" connectable="0" parent="1">
          <mxGeometry x="850" y="500" width="180" height="30" as="geometry" />
        </mxCell>
        <mxCell id="pVFXHFNgFS89Wjit-Zps-21" value="" style="verticalLabelPosition=bottom;verticalAlign=top;html=1;shape=mxgraph.basic.rect;fillColor2=none;strokeWidth=1;size=20;indent=5;fillColor=#fa6800;strokeColor=#C73500;fontColor=#000000;" vertex="1" parent="pVFXHFNgFS89Wjit-Zps-28">
          <mxGeometry x="30" width="30" height="30" as="geometry" />
        </mxCell>
        <mxCell id="pVFXHFNgFS89Wjit-Zps-22" value="" style="verticalLabelPosition=bottom;verticalAlign=top;html=1;shape=mxgraph.basic.rect;fillColor2=none;strokeWidth=1;size=20;indent=5;fillColor=#008a00;strokeColor=#005700;fontColor=#ffffff;" vertex="1" parent="pVFXHFNgFS89Wjit-Zps-28">
          <mxGeometry x="60" width="30" height="30" as="geometry" />
        </mxCell>
        <mxCell id="pVFXHFNgFS89Wjit-Zps-23" value="" style="verticalLabelPosition=bottom;verticalAlign=top;html=1;shape=mxgraph.basic.rect;fillColor2=none;strokeWidth=1;size=20;indent=5;fillColor=#0050ef;strokeColor=#001DBC;fontColor=#ffffff;" vertex="1" parent="pVFXHFNgFS89Wjit-Zps-28">
          <mxGeometry x="90" width="30" height="30" as="geometry" />
        </mxCell>
        <mxCell id="pVFXHFNgFS89Wjit-Zps-25" value="" style="verticalLabelPosition=bottom;verticalAlign=top;html=1;shape=mxgraph.basic.rect;fillColor2=none;strokeWidth=1;size=20;indent=5;fillColor=#d80073;strokeColor=#A50040;fontColor=#ffffff;" vertex="1" parent="pVFXHFNgFS89Wjit-Zps-28">
          <mxGeometry x="120" width="30" height="30" as="geometry" />
        </mxCell>
        <mxCell id="pVFXHFNgFS89Wjit-Zps-26" value="" style="verticalLabelPosition=bottom;verticalAlign=top;html=1;shape=mxgraph.basic.rect;fillColor2=none;strokeWidth=1;size=20;indent=5;fillColor=#a20025;strokeColor=#6F0000;fontColor=#ffffff;" vertex="1" parent="pVFXHFNgFS89Wjit-Zps-28">
          <mxGeometry x="150" width="30" height="30" as="geometry" />
        </mxCell>
        <mxCell id="pVFXHFNgFS89Wjit-Zps-27" value="" style="verticalLabelPosition=bottom;verticalAlign=top;html=1;shape=mxgraph.basic.rect;fillColor2=none;strokeWidth=1;size=20;indent=5;fillColor=#f0a30a;strokeColor=#BD7000;fontColor=#000000;" vertex="1" parent="pVFXHFNgFS89Wjit-Zps-28">
          <mxGeometry width="30" height="30" as="geometry" />
        </mxCell>
        <mxCell id="pVFXHFNgFS89Wjit-Zps-30" value="" style="group" vertex="1" connectable="0" parent="1">
          <mxGeometry x="850" y="530" width="180" height="30" as="geometry" />
        </mxCell>
        <mxCell id="pVFXHFNgFS89Wjit-Zps-31" value="" style="verticalLabelPosition=bottom;verticalAlign=top;html=1;shape=mxgraph.basic.rect;fillColor2=none;strokeWidth=1;size=20;indent=5;fillColor=#ffcd28;strokeColor=#d79b00;gradientColor=#ffa500;" vertex="1" parent="pVFXHFNgFS89Wjit-Zps-30">
          <mxGeometry x="30" width="30" height="30" as="geometry" />
        </mxCell>
        <mxCell id="pVFXHFNgFS89Wjit-Zps-32" value="" style="verticalLabelPosition=bottom;verticalAlign=top;html=1;shape=mxgraph.basic.rect;fillColor2=none;strokeWidth=1;size=20;indent=5;fillColor=#d5e8d4;strokeColor=#82b366;gradientColor=#97d077;" vertex="1" parent="pVFXHFNgFS89Wjit-Zps-30">
          <mxGeometry x="60" width="30" height="30" as="geometry" />
        </mxCell>
        <mxCell id="pVFXHFNgFS89Wjit-Zps-33" value="" style="verticalLabelPosition=bottom;verticalAlign=top;html=1;shape=mxgraph.basic.rect;fillColor2=none;strokeWidth=1;size=20;indent=5;fillColor=#dae8fc;strokeColor=#6c8ebf;gradientColor=#7ea6e0;" vertex="1" parent="pVFXHFNgFS89Wjit-Zps-30">
          <mxGeometry x="90" width="30" height="30" as="geometry" />
        </mxCell>
        <mxCell id="pVFXHFNgFS89Wjit-Zps-34" value="" style="verticalLabelPosition=bottom;verticalAlign=top;html=1;shape=mxgraph.basic.rect;fillColor2=none;strokeWidth=1;size=20;indent=5;fillColor=#f5f5f5;gradientColor=#b3b3b3;strokeColor=#666666;" vertex="1" parent="pVFXHFNgFS89Wjit-Zps-30">
          <mxGeometry x="120" width="30" height="30" as="geometry" />
        </mxCell>
        <mxCell id="pVFXHFNgFS89Wjit-Zps-35" value="" style="verticalLabelPosition=bottom;verticalAlign=top;html=1;shape=mxgraph.basic.rect;fillColor2=none;strokeWidth=1;size=20;indent=5;" vertex="1" parent="pVFXHFNgFS89Wjit-Zps-30">
          <mxGeometry x="150" width="30" height="30" as="geometry" />
        </mxCell>
        <mxCell id="pVFXHFNgFS89Wjit-Zps-36" value="" style="verticalLabelPosition=bottom;verticalAlign=top;html=1;shape=mxgraph.basic.rect;fillColor2=none;strokeWidth=1;size=20;indent=5;fillColor=#fff2cc;strokeColor=#d6b656;gradientColor=#ffd966;" vertex="1" parent="pVFXHFNgFS89Wjit-Zps-30">
          <mxGeometry width="30" height="30" as="geometry" />
        </mxCell>
        <mxCell id="pVFXHFNgFS89Wjit-Zps-38" value="app" style="whiteSpace=wrap;html=1;aspect=fixed;rounded=1;fontFamily=Courier New;" vertex="1" parent="1">
          <mxGeometry x="870" y="600" width="60" height="60" as="geometry" />
        </mxCell>
        <mxCell id="pVFXHFNgFS89Wjit-Zps-39" value="app" style="whiteSpace=wrap;html=1;aspect=fixed;rounded=1;" vertex="1" parent="1">
          <mxGeometry x="950" y="600" width="60" height="60" as="geometry" />
        </mxCell>
        <mxCell id="pVFXHFNgFS89Wjit-Zps-40" value="app" style="whiteSpace=wrap;html=1;aspect=fixed;rounded=1;" vertex="1" parent="1">
          <mxGeometry x="870" y="680" width="60" height="60" as="geometry" />
        </mxCell>
        <mxCell id="pVFXHFNgFS89Wjit-Zps-41" value="app" style="whiteSpace=wrap;html=1;aspect=fixed;rounded=1;" vertex="1" parent="1">
          <mxGeometry x="950" y="680" width="60" height="60" as="geometry" />
        </mxCell>
        <mxCell id="pVFXHFNgFS89Wjit-Zps-42" value="&lt;font face=&quot;Lucida Console&quot;&gt;TYPESCRIPT for both front and back&lt;/font&gt;" style="rounded=1;whiteSpace=wrap;html=1;fillColor=#d5e8d4;strokeColor=#82b366;gradientColor=#97d077;" vertex="1" parent="1">
          <mxGeometry x="170" y="590" width="470" height="70" as="geometry" />
        </mxCell>
        <mxCell id="pVFXHFNgFS89Wjit-Zps-43" value="ELECTRON" style="rounded=1;whiteSpace=wrap;html=1;fontFamily=Lucida Console;fillColor=#fff2cc;strokeColor=#d6b656;gradientColor=#ffd966;" vertex="1" parent="1">
          <mxGeometry x="170" y="400" width="240" height="190" as="geometry" />
        </mxCell>
        <mxCell id="pVFXHFNgFS89Wjit-Zps-44" value="REACT" style="rounded=1;whiteSpace=wrap;html=1;fontFamily=Lucida Console;fillColor=#dae8fc;gradientColor=#7ea6e0;strokeColor=#6c8ebf;" vertex="1" parent="1">
          <mxGeometry x="410" y="530" width="230" height="60" as="geometry" />
        </mxCell>
        <mxCell id="pVFXHFNgFS89Wjit-Zps-45" value="&lt;font face=&quot;Lucida Console&quot;&gt;bundle&lt;/font&gt;" style="rounded=1;whiteSpace=wrap;html=1;fillColor=#f5f5f5;gradientColor=#b3b3b3;strokeColor=#666666;" vertex="1" parent="1">
          <mxGeometry x="465" y="480" width="120" height="30" as="geometry" />
        </mxCell>
        <mxCell id="pVFXHFNgFS89Wjit-Zps-46" value="VITE" style="rounded=1;whiteSpace=wrap;html=1;fontFamily=Lucida Console;fillColor=#dae8fc;gradientColor=#7ea6e0;strokeColor=#6c8ebf;" vertex="1" parent="1">
          <mxGeometry x="410" y="400" width="230" height="60" as="geometry" />
        </mxCell>
        <mxCell id="pVFXHFNgFS89Wjit-Zps-48" value="" style="html=1;shadow=0;dashed=0;align=center;verticalAlign=middle;shape=mxgraph.arrows2.arrow;dy=0.6;dx=40;direction=north;notch=0;fillColor=#eeeeee;strokeColor=#36393d;" vertex="1" parent="1">
          <mxGeometry x="512.5" y="510" width="25" height="20" as="geometry" />
        </mxCell>
        <mxCell id="pVFXHFNgFS89Wjit-Zps-50" value="" style="html=1;shadow=0;dashed=0;align=center;verticalAlign=middle;shape=mxgraph.arrows2.arrow;dy=0.6;dx=40;direction=north;notch=0;fillColor=#eeeeee;strokeColor=#36393d;" vertex="1" parent="1">
          <mxGeometry x="512.5" y="460" width="25" height="20" as="geometry" />
        </mxCell>
        <mxCell id="pVFXHFNgFS89Wjit-Zps-51" value="" style="html=1;shadow=0;dashed=0;align=center;verticalAlign=middle;shape=mxgraph.arrows2.arrow;dy=0.6;dx=40;direction=north;notch=0;fillColor=#eeeeee;strokeColor=#36393d;" vertex="1" parent="1">
          <mxGeometry x="392.5" y="380" width="25" height="20" as="geometry" />
        </mxCell>
        <mxCell id="pVFXHFNgFS89Wjit-Zps-52" value="&lt;font face=&quot;Lucida Console&quot;&gt;bundle&lt;/font&gt;" style="rounded=1;whiteSpace=wrap;html=1;fillColor=#f5f5f5;gradientColor=#b3b3b3;strokeColor=#666666;" vertex="1" parent="1">
          <mxGeometry x="350" y="350" width="120" height="30" as="geometry" />
        </mxCell>
        <mxCell id="pVFXHFNgFS89Wjit-Zps-53" value="" style="html=1;shadow=0;dashed=0;align=center;verticalAlign=middle;shape=mxgraph.arrows2.arrow;dy=0.6;dx=40;direction=north;notch=0;fillColor=#eeeeee;strokeColor=#36393d;" vertex="1" parent="1">
          <mxGeometry x="392.5" y="330" width="25" height="20" as="geometry" />
        </mxCell>
        <mxCell id="pVFXHFNgFS89Wjit-Zps-54" value="&lt;div style=&quot;&quot;&gt;&lt;span style=&quot;background-color: initial;&quot;&gt;ELECTRON-BUILDER&lt;/span&gt;&lt;/div&gt;" style="rounded=1;whiteSpace=wrap;html=1;fontFamily=Lucida Console;align=center;fillColor=#d5e8d4;gradientColor=#97d077;strokeColor=#82b366;" vertex="1" parent="1">
          <mxGeometry x="170" y="250" width="470" height="80" as="geometry" />
        </mxCell>
      </root>
    </mxGraphModel>
  </diagram>
</mxfile>
